/* XPM */
static char *b296e368acb645bef6bd908e1b5cd6cb9jW2IX17dafRbZVc[] = {
/* columns rows colors chars-per-pixel */
"128 128 15 1 ",
"  c black",
". c #161616",
"X c #080D25",
"o c gray16",
"O c #2D2D2D",
"+ c #101A4B",
"@ c #182670",
"# c gray25",
"$ c #646464",
"% c #747474",
"& c #929292",
"* c #C6C6C6",
"= c gainsboro",
"- c #FDFDFD",
"; c white",
/* pixels */
"@@@@@@@@@@@@@@@@@@@@@@@@@@@@@@@@@@@@@@@@@@@@@@@@@@@@@@@@@@@@@@@@@@@@@@@@@@@@@@@@@@@@@@@@@@@@@@@X@@@@@@@@@@@@@@@@@@@@@@@@@@@@@@@X",
"@@@@@@@@@@@@@@@@@@@@@@@@@@@@@@@@@@@@@@@@@@@@@@@@@@@@@@@@@@@@@@@@@@@@@@@@@@@@@@@@@@@@@@@@@@@@@@XX@@@@@@@@@@@@@@@@@@@@@@@@@@@@@@XX",
"@@@@@@@@@@@@@@@@@@@@@@@@@@@@@@@@@@@@@@@@@@@@@@@@@@@@@@@@@@@@@@@@@@@@@@@@@@@@@@@@@@@@@@@@@@@@@XXX@@@@@@@@@@@@@@@@@@@@@@@@@@@@@XXX",
"@@@++++++++++++++++++++++++++++++++++++++++++++++++++++++++++++++++++++++++++++++++++++++++++XXX@@@++++++++++++++++++++++++++XXX",
"@@@++++++++++++++++++++++++++++++++++++++++++++++++++++++++++++++++++++++++++++++++++++++++++XXX@@@++++++++++++++++++++++++++XXX",
"@@@++++++++++++++++++++++++++++++++++++++++++++++++++++++++++++++++++++++++++++++++++++++++++XXX@@@++++++++++++++++++++++++++XXX",
"@@@++++++++++++++++++++++++++++++++++++++++++++++++++++++++++++++++++++++++++++++++++++++++++XXX@@@++++++++++++++++++++++++++XXX",
"@@@++++++++++++++++++++++++++++++++++++++++++++++++++++++++++++++++++++++++++++++++++++++++++XXX@@@++++++++++++++++++++++++++XXX",
"@@@++++++++++++++++++++++++++++++++++++++++++++++++++++++++++++++++++++++++++++++++++++++++++XXX@@@++++++++++++++++++++++++++XXX",
"@@@++++++++++++++++++++++++++++++++++++++++++++++++++++++++++++++++++++++++++++++++++++++++++XXX@@@++++++++++++++++++++++++++XXX",
"@@@++++++++++++++++++++++++++++++++++++++++++++++++++++++++++++++++++++++++++++++++++++++++++XXX@@@++++++++++++++++++++++++++XXX",
"@@@++++++++++++++++++++++++++++++++++++++++++++++++++++++++++++++++++++++++++++++++++++++++++XXX@@@++++++++++++++++++++++++++XXX",
"@@@++++++++++++++++++++++++++++++++++++++++++++++++++++++++++++++++++++++++++++++++++++++++++XXX@@@++++++++++++++++++++++++++XXX",
"@@@++++++++++++++++++++++++++++++++++++++++++++++++++++++++++++++++++++++++++XXXXXXXXXXXXXXXXXXX@@XXXXXXXXXXXXXXXX@++++++++++XXX",
"@@@++++++++++++++++++++++++++++++++++++++++++++++++++++++++++++++++++++++++++XXXXXXXXXXXXXXXXXXX@XXXXXXXXXXXXXXXX@@++++++++++XXX",
"@@@++++++++++++++++++++++++++++++++++++++++++++++++++++++++++++++++++++++++++XXXXXXXXXXXXXXXXXXXXXXXXXXXXXXXXXXX@@@++++++++++XXX",
"@@@++++++++++++++++++++++++++++++++++++++++++++++++++++++++++++++++++++++++++XXX..........OOOOO%%%%%======;;;;;=@@@++++++++++XXX",
"@@@++++++++++++++++++++++++++++++++++++++++++++++++++++++++++++++++++++++++++XXX..........OOOO%%%%%%=====;;;;;;=@@@++++++++++XXX",
"@@@++++++++++++++++++++++++++++++++++++++++++++++++++++++++++++++++++++++++++XXX.........OOOOO%%%%%======;;;;;;=@@@++++++++++XXX",
"@@@++++++++++++++++++++++++++++++++++++++++++++++++++++++++++++++++++++++++++XXX.........OOOOO%%%%%======;;;;;==@@@++++++++++XXX",
"@@@++++++++++++++++++++++++++++++++++++++++++++++++++++++++++++++++++++++++++XXX.........OOOOO%%%%%=====;;;;;;==@@@++++++++++XXX",
"@@@++++++++++++++++++++++++++++++++++++++++++++++++++++++++++++++++++++++++++XXX.........OOOO%%%%%*=====;;;;;;==@@@++++++++++XXX",
"@@@++++++++++++++++++++++++++++++++++++++++++++++++++++++++++++++++++++++++++XXX........OOOOO%%%%%======;;;;;===@@@++++++++++XXX",
"@@@++++++++++++++++++++++++++++++++++++++++++++++++++++++++++++++++++++++++++XXX........OOOOO%%%%%======;;;;;===@@@++++++++++XXX",
"@@@++++++++++++++++++++++++++++++++++++++++++++++++++++++++++++++++++++++++++XXX........OOOO%%%%%%=====;;;;;;===@@@++++++++++XXX",
"@@@++++++++++++++++++++++++++++++++++++++++++++++++++++++++++++++++++++++++++XXX.......OOOOO%%%%%======;;;;;;===@@@++++++++++XXX",
"@@@++++++++++++++++++++++++++++++++++++++++++++++++++++++++++++++++++++++++++XXX.......OOOOO%%%%%======;;;;;====@@@++++++++++XXX",
"@@@++++++++++++++++++++++++++++++++++++++++++++++++++++++++++++++++++++++++++XXX.......OOOOO%%%%%======;;;;;====@@@++++++++++XXX",
"@@@++++++++++++++++++++++++++++++++++++++++++++++++++++++++++++++++++++++++++XXX.......OOOO%%%%%%=====;;;;;;====@@@++++++++++XXX",
"@@XXXXXXXXXXXXXXXXXXXXXXXXXXXXXXXXXXXXXXXXXXXXXXXX@++++++++++++++++++++++++++XXX......OOOOO%%%%%======;;;;;;====@@@++++++++++XXX",
"@XXXXXXXXXXXXXXXXXXXXXXXXXXXXXXXXXXXXXXXXXXXXXXXX@@++++++++++++++++++++++++++XXX......OOOOO%%%%%======;;;;;=====@@@++++++++++XXX",
"XXXXXXXXXXXXXXXXXXXXXXXXXXXXXXXXXXXXXXXXXXXXXXXX@@@++++++++++++++++++++++++++XXX......OOOOO%%%%%=====;;;;;;=====@@@++++++++++XXX",
"@@@@@@@@@@@@@@@@@@@@@@@@@@@@@@@@@@@@@@@@@@@@@@@X@@@++++++++++++++++++++++++++XXX......OOOO%%%%%======;;;;;;=====@@@++++++++++XXX",
"@@@@@@@@@@@@@@@@@@@@@@@@@@@@@@@@@@@@@@@@@@@@@@XX@@@++++++++++++++++++++++++++XXX.....OOOOO%%%%%======;;;;;======@@@++++++++++XXX",
"@@@@+++++++++++++++++++++++++++++++++++++++++XXX@@@++++++++++++++++++++++++++XXX.....OOOOO%%%%%======;;;;;======@@@++++++++++XXX",
"@@@@+++++++++++++++++++++++++++++++++++++++++XXX@@@++++++++++++++++++++++++++XXX.....OOOO%%%%%%=====;;;;;;======@@@++++++++++XXX",
"@@@@+++++++++++++++++++++++++++++++++++++++++XXX@@@++++++++++++++++++++++++++XXX....OOOOO%%%%%======;;;;;;=====%@@@++++++++++XXX",
"@@@@+++++++++++++++++++++++++++++++++++++++++XXX@@@++++++++++++++++++++++++++XXX....OOOOO%%%%%======;;;;;======%@@@++++++++++XXX",
"@@@@+++++++++++++++++++++++++++++++++++++++++XXX@@@++++++++++++++++++++++++++XXX....OOOOO%%%%%======;;;;;======%@@@++++++++++XXX",
"@@@@+++++++++++++++++++++++++++++++++++++++++XXX@@@++++++++++++++++++++++++++XXX....OOOO%%%%%%=====;;;;;;======%@@@++++++++++XXX",
"@@@@+++++++++++++++++++++++++++++++++++++++++XXX@@@++++++++++++++++++++++++++XXX...OOOOO%%%%%======;;;;;;=====%%@@@++++++++++XXX",
"@@@@+++++++++++++++++++++++++++++++++++++++++XXX@@@++++++++++++++++++++++++++XXX...OOOOO%%%%%======;;;;;======%%@@@++++++++++XXX",
"@@@@+++++++++++++++++++++++++++++++++++++++++XXX@@@++++++++++++++++++++++++++XXX...OOOOO%%%%%=====;;;;;;======%%@@@++++++++++XXX",
"@@@@+++++++++++++++++++++++++++++++++++++++++XXX@@@++++++++++++++++++++++++++XXX...OOOO%%%%%*=====;;;;;;=====%%%@@@++++++++++XXX",
"@@@@+++++++++++++++++++++++++++++++++++++++++XXX@@@++++++++++++++++++++++++++XXX..OOOOO%%%%%======;;;;;======%%%@@@++++++++++XXX",
"@@@@+++++++++++++++++++++++++++++++++++++++++XXX@@@++++++++++++++++++++++++++XXX..OOOOO%%%%%======;;;;;======%%%@@@++++++++++XXX",
"@@@@+++++++++++++++++++++++++++++++++++++++++XXX@@@++++++++++++++++++++++++++XXX..OOOO%%%%%%=====;;;;;;======%%%@@@++++++++++XXX",
"@@@@+++++++++++++++++++++++++++++++++++++++++XXX@@@++++++++++++++++++++++++++XXX.OOOOO%%%%%======;;;;;;=====%%%%@@@++++++++++XXX",
"@@@@+++++++++++++++++++++++++++++++++++++++++XXX@@@++++++++++++++++++++++++++XXX.OOOOO%%%%%======;;;;;======%%%%@@@++++++++++XXX",
"@@@@+++++++++++++++++++++++++++++++++++++++++XXX@@@++++++++++++++++++++++++++XXX.OOOOO%%%%%======;;;;;======%%%%@@@++++++++++XXX",
"@@@@+++++++++++++++++++++++++++++++++++++++++XXX@@@++++++++++++++++++++++++++XXX.OOOO%%%%%%=====;;;;;;=====%%%%%@@@++++++++++XXX",
"@@@@+++++++++++++++++++++++++++++++++++++++++XXX@@@++++++++++++++++++++++++++XXXOOOOO%%%%%======;;;;;;=====%%%%%@@@++++++++++XXX",
"@@@@+++++++++++++++++++++++++++++++++++++++++XXX@@@++++++++++++++++++++++++++XXXOOOOO%%%%%======;;;;;======%%%%%@@@++++++++++XXX",
"@@@@+++++++++++++++++++++++++++++++++++++++++XXX@@@++++++++++++++++++++++++++XXXOOOOO%%%%%=====;;;;;;======%%%%%@@@++++++++++XXX",
"@@@@+++++++++++++++++++++++++++++++++++++++++XXX@@@++++++++++++++++++++++++++XXXOOOO%%%%%======;;;;;;=====%%%%%%@@@++++++++++XXX",
"@@@@+++++++++++++++++++++++++++++++++++++++++XXX@@@++++++++++++++++++++++++++XXXOOOO%%%%%======;;;;;;=====%%%%%O@@@+++++X++++XXX",
"@@@@+++++++++++++++++++++++++++++++++++++++++XXX@@@++++++++++++++++++++++++++XXXOOOO%%%%%======;;;;;======%%%%%O@@@++++X @+++XXX",
"@@@@+++++++++++++++++++++++++++++++++++++++++XXX@@@++++++++++++++++++++++++++XXXOOO%%%%%%=====;;;;;;======%%%%%O@@@++++X @+++XXX",
"@@@@+++++++++++++++++++++++++++++++++++++++++XXX@@@++++++++++++++++++++++++++XXXOOO%%%%%======;;;;;;=====%%%%%OO@@@++++X @+++XXX",
"@@@@+++++++++++++++++++++++++++++++++++++++++XXX@@@++++++++++++++++++++++++++XXXOOO%%%%%======;;;;;======%%%%%OO@@@++++X @+++XXX",
"@@@@+++++++++++++++++++++++++++++++++++++++++XXX@@@++++++++++++++++++++++++++XXXOOO%%%%%=====;;;;;;======%%%%%OO@@@++++X @+++XXX",
"@@@@+++++++++++++++++++++++++++++++++++++++++XXX@@XXXXXXXXXXXXXXXXXXXXXXXXXXXXXXOO%%%%%%=====;;;;;;=====&%%%%%OO@@@++++X @+++XXX",
"@@@@+++++++++++++++++++++++++++++++++++++++++XXX@XXXXXXXXXXXXXXXXXXXXXXXXXXXXXXXOO%%%%%======;;;;;;=====%%%%%OOO@@@++++X @+++XXX",
"@@@@+++++++++++++++++++++++++++++++++++++++++XXXXXXXXXXXXXXXXXXXXXXXXXXXXXXXXXXXOO%%%%%======;;;;;======%%%%%OOO@@@++++X @+++XXX",
"@@@@+++++++++++++++++++++++++++++++++++++++++XXX@@@@@@@@@@@@@@@@@@@@@@@@@@@@@@@XOO%%%%%=====;;;;;;======%%%%%OOO@@@++++X @+++XXX",
"@@@@+++++++++++++++++++++++++++++++++++++++++XXX@@@@@@@@@@@@@@@@@@@@@@@@@@@@@@XXO%%%%%======;;;;;;=====%%%%%%OOO@@@++++X @+++XXX",
"@@@@+++++++++++++++++++++++++++++++++++++++++XXX@@@@@@@@@@@@@@@@@@@@@@@@@@@@@XXXO%%%%%======;;;;;======%%%%%OOOO@@@++++X @+++XXX",
"@@@@+++++++++++++++++++++++++++++++++++++++++XXX@@@++++++++++++++++++++++++++XXXO%%%%%======;;;;;======%%%%%OOOO@@@++++X @+++XXX",
"@@@@+++++++++++++++++++++++++++++++++++++++++XXX@@@++++++++++++++++++++++++++XXXO%%%%%=====;;;;;;======%%%%%OOOO@@@++++X @+++XXX",
"@@@@+++++++++++++++++++++++++++++++++++++++++XXX@@@++++++++++++++++++++++++++XXX%%%%%======;;;;;;=====%%%%%$OOOO@@@++++X @+++XXX",
"@@@@+++++++++++++++++++++++++++++++++++++++++XXX@@@++++++++++++++++++++++++++XXX%%%%%======;;;;;======%%%%%OOOOO@@@++++X @+++XXX",
"@@@@+++++++++++++++++++++++++++++++++++++++++XXX@@@++++++++++++++++++++++++++XXX%%%%%======;;;;;======%%%%%OOOOO@@@++++X @+++XXX",
"@@@@+++++++++++++++++++++++++++++++++++++++++XXX@@@++++++++++++++++++++++++++XXX%%%%%=====;;;;;;=====%%%%%%OOOO.@@@+++++@++++XXX",
"@@@@+++++++++++++++++++++++++++++++++++++++++XXX@@@++++++++++++++++++++++++++XXX%%%%======;;;;;;=====%%%%%OOOOO.@@@++++++++++XXX",
"@@@@+++++++++++++++++++++++++++++++++++++++++XXX@@@++++++++++++++++++++++++++XXX%%%%======;;;;;======%%%%%OOOOO.@@@++++++++++XXX",
"@@@@+++++++++++++++++++++++++++++++++++++++++XXX@@@++++++++++++++++++++++++++XXX%%%%=====;;;;;;======%%%%%OOOOO.@@@++++++++++XXX",
"@@@@+++++++++++++++++++++++++++++++++++++++++XXX@@@++++++++++++++++++++++++++XXX%%%&=====;;;;;;=====%%%%%%OOOO..@@@++++++++++XXX",
"@@@@+++++++++++++++++++++++++++++++++++++++++XXX@@@++++++++++++++++++++++++++XXX%%%======;;;;;;=====%%%%%OOOOO..@@@++++++++++XXX",
"@@@@+++++++++++++++++++++++++++++++++++++++++XXX@@@++++++++++++++++++++++++++XXX%%%======;;;;;======%%%%%OOOOO..@@@++++++++++XXX",
"@@@@+++++++++++++++++++++++++++++++++++++++++XXX@@@++++++++++++++++++++++++++XXX%%%=====;;;;;;======%%%%%OOOO...@@@++++++++++XXX",
"@@@@+++++++++++++++++++++++++++++++++++++++++XXX@@@++++++++++++++++++++++++++XXX%%======;;;;;;=====%%%%%%OOOO...@@@++++++++++XXX",
"@@@@+++++++++++++++++++++++++++++++++++++++++XXX@@@++++++++++++++++++++++++++XXX%%======;;;;;======%%%%%OOOOO...@@@++++++++++XXX",
"@@@@+++++++++++++++++++++++++++++++++++++++++XXX@@@++++++++++++++++++++++++++XXX%%======;;;;;======%%%%%OOOOO...@@@++++++++++XXX",
"@@@@+++++++++++++++++++++++++++++++++++++++++XXX@@@++++++++++++++++++++++++++XXX%%=====;;;;;;=====%%%%%%OOOO....@@@++++++++++XXX",
"@@@@+++++++++++++++++++++++++++++++++++++++++XXX@@@++++++++++++++++++++++++++XXX%======;;;;;;=====%%%%%OOOOO....@@@++++++++++XXX",
"@@@@+++++++++++++++++++++++++++++++++++++++++XXX@@@++++++++++++++++++++++++++XXX%======;;;;;======%%%%%OOOOO....@@@++++++++++XXX",
"@@@@+++++++++++++++++++++++++++++++++++++++++XXX@@@++++++++++++++++++++++++++XXX%=====;;;;;;======%%%%%OOOOO....@@@++++++++++XXX",
"@@@@+++++++++++++++++++++++++++++++++++++++++XXX@@@++++++++++++++++++++++++++XXX======;;;;;;=====%%%%%%OOOO.....@@@++++++++++XXX",
"@@@@+++++++++++++++++++++++++++++++++++++++++XXX@@@++++++++++++++++++++++++++XXX======;;;;;======%%%%%OOOOO.....@@@++++++++++XXX",
"@@@@+++++++++++++++++++++++++++++++++++++++++XXX@@@++++++++++++++++++++++++++XXX======;;;;;======%%%%%OOOOO.....@@@++++++++++XXX",
"@@@@+++++++++++++++++++++++++++++++++++++++++XXX@@@++++++++++++++++++++++++++XXX=====;;;;;;======%%%%%OOOOo.....@@@++++++++++XXX",
"@@@@+++++++++++++++++++++++++++++++++++++++++XXX@@@++++++++++++++++++++++++++XXX=====;;;;;;=====%%%%%#OOOO......@@@++++++++++XXX",
"@@@@+++++++++++++++++++++++++++++++++++++++++XXX@@@++++++++++++++++++++++++++XXX=====;;;;;======%%%%%OOOOO......@@@++++++++++XXX",
"@@@@XXXXXXXXXXXXXXXXXXXXXXXXXXXXXXXXXXXXXXXXXXXX@@@++++++++++++++++++++++++++XXX====;;;;;;======%%%%%OOOOO......@@@++++++++++XXX",
"@@XXXXXXXXXXXXXXXXXXXXXXXXXXXXXXXXXXXXXXXXXXXXXX@@@++++++++++++++++++++++++++XXX====;;;;;;=====*%%%%%OOOO.......@@@++++++++++XXX",
"@XXXXXXXXXXXXXXXXXXXXXXXXXXXXXXXXXXXXXXXXXXXXXXX@@@++++++++++++++++++++++++++XXX====;;;;;;=====%%%%%OOOOO.......@@@++++++++++XXX",
"X@@@@@@@@@@@@@@@@@@@@@@@@@@@@@@@@@@@@@@@@@@@@@@@@@@++++++++++++++++++++++++++XXX====;;;;;======%%%%%OOOOO.......@@@++++++++++XXX",
"@X@@@@@@@@@@@@@@@@@@@@@@@@@@@@@@@@@@@@@@@@@@@@@@@@@++++++++++++++++++++++++++XXX===;;;;;;======%%%%%OOOOO.......@@@++++++++++XXX",
"@@X@@@@@@@@@@@@@@@@@@@@@@@@@@@@@@@@@@@@@@@@@@@@@@@@++++++++++++++++++++++++++XXX===;;;;;;=====%%%%%%OOOO........@@@++++++++++XXX",
"@@@++++++++++++++++++++++++++++++++++++++++++++++++++++++++++++++++++++++++++XXX===;;;;;======%%%%%OOOOO........@@@++++++++++XXX",
"@@@++++++++++++++++++++++++++++++++++++++++++++++++++++++++++++++++++++++++++XXX===;;;;;======%%%%%OOOOO........@@@++++++++++XXX",
"@@@++++++++++++++++++++++++++++++++++++++++++++++++++++++++++++++++++++++++++XXX==;;;;;;======%%%%%OOOO.........@@@++++++++++XXX",
"@@@++++++++++++++++++++++++++++++++++++++++++++++++++++++++++++++++++++++++++XXX==;;;;;;=====%%%%%$OOOO.........@@@++++++++++XXX",
"@@@++++++++++++++++++++++++++++++++++++++++++++++++++++++++++++++++++++++++++XXX==;;;;;======%%%%%OOOOO.........@@@++++++++++XXX",
"@@@++++++++++++++++++++++++++++++++++++++++++++++++++++++++++++++++++++++++++XXX=;;;;;;======%%%%%OOOOO.........@@@++++++++++XXX",
"@@@++++++++++++++++++++++++++++++++++++++++++++++++++++++++++++++++++++++++++XXX=;;;;;;=====%%%%%%OOOO..........@@@++++++++++XXX",
"@@@++++++++++++++++++++++++++++++++++++++++++++++++++++++++++++++++++++++++++XXX=;;;;;;=====%%%%%OOOOO..........@@@++++++++++XXX",
"@@@++++++++++++++++++++++++++++++++++++++++++++++++++++++++++++++++++++++++++XXX=;;;;;======%%%%%OOOOO..........@@@++++++++++XXX",
"@@@++++++++++++++++++++++++++++++++++++++++++++++++++++++++++++++++++++++++++XXX;;;;;;======%%%%%OOOOO..........@@@++++++++++XXX",
"@@@++++++++++++++++++++++++++++++++++++++++++++++++++++++++++++++++++++++++++XXX;;;;;;=====%%%%%%OOOO...........@@@++++++++++XXX",
"@@@++++++++++++++++++++++++++++++++++++++++++++++++++++++++++++++++++++++++++XXX;;;;;======%%%%%OOOOO...........@@@++++++++++XXX",
"@@@++++++++++++++++++++++++++++++++++++++++++++++++++++++++++++++++++++++++++XXX;;;;;======%%%%%OOOOO...........@@@++++++++++XXX",
"@@@++++++++++++++++++++++++++++++++++++++++++++++++++++++++++++++++++++++++++XX@@@@@@@@@@@@@@@@X@@@@@@@@@@@@@@@@@@@++++++++++XXX",
"@@@++++++++++++++++++++++++++++++++++++++++++++++++++++++++++++++++++++++++++X@@@@@@@@@@@@@@@@XX@@@@@@@@@@@@@@@@@@@++++++++++XXX",
"@@@++++++++++++++++++++++++++++++++++++++++++++++++++++++++++++++++++++++++++@@@@@@@@@@@@@@@@XXX@@@@@@@@@@@@@@@@@@@++++++++++XXX",
"@@@++++++++++++++++++++++++++++++++++++++++++++++++++++++++++++++++++++++++++++++++++++++++++XXX@@@++++++++++++++++++++++++++XXX",
"@@@++++++++++++++++++++++++++++++++++++++++++++++++++++++++++++++++++++++++++++++++++++++++++XXX@@@++++++++++++++++++++++++++XXX",
"@@@++++++++++++++++++++++++++++++++++++++++++++++++++++++++++++++++++++++++++++++++++++++++++XXX@@@++++++++++++++++++++++++++XXX",
"@@@++++++++++++++++++++++++++++++++++++++++++++++++++++++++++++++++++++++++++++++++++++++++++XXX@@@++++++++++++++++++++++++++XXX",
"@@@++++++++++++++++++++++++++++++++++++++++++++++++++++++++++++++++++++++++++++++++++++++++++XXX@@@++++++++++++++++++++++++++XXX",
"@@@++++++++++++++++++++++++++++++++++++++++++++++++++++++++++++++++++++++++++++++++++++++++++XXX@@@++++++++++++++++++++++++++XXX",
"@@@++++++++++++++++++++++++++++++++++++++++++++++++++++++++++++++++++++++++++++++++++++++++++XXX@@@++++++++++++++++++++++++++XXX",
"@@@++++++++++++++++++++++++++++++++++++++++++++++++++++++++++++++++++++++++++++++++++++++++++XXX@@@++++++++++++++++++++++++++XXX",
"@@@++++++++++++++++++++++++++++++++++++++++++++++++++++++++++++++++++++++++++++++++++++++++++XXX@@@++++++++++++++++++++++++++XXX",
"@@@++++++++++++++++++++++++++++++++++++++++++++++++++++++++++++++++++++++++++++++++++++++++++XXX@@@++++++++++++++++++++++++++XXX",
"@@XXXXXXXXXXXXXXXXXXXXXXXXXXXXXXXXXXXXXXXXXXXXXXXXXXXXXXXXXXXXXXXXXXXXXXXXXXXXXXXXXXXXXXXXXXXXXX@@XXXXXXXXXXXXXXXXXXXXXXXXXXXXXX",
"@XXXXXXXXXXXXXXXXXXXXXXXXXXXXXXXXXXXXXXXXXXXXXXXXXXXXXXXXXXXXXXXXXXXXXXXXXXXXXXXXXXXXXXXXXXXXXXX@XXXXXXXXXXXXXXXXXXXXXXXXXXXXXXX",
"XXXXXXXXXXXXXXXXXXXXXXXXXXXXXXXXXXXXXXXXXXXXXXXXXXXXXXXXXXXXXXXXXXXXXXXXXXXXXXXXXXXXXXXXXXXXXXXXXXXXXXXXXXXXXXXXXXXXXXXXXXXXXXXX"
};
