/* XPM */
static char *fdad97b11d164254cb499ec8d5fa50cfpTcw5qnVG7RkTThJ[] = {
/* columns rows colors chars-per-pixel */
"128 128 4 1 ",
"  c #1B1B1B",
". c #232323",
"X c #2A2A2A",
"o c #3A3A3A",
/* pixels */
"XXXXXXXXXXXXXXXXXXXXXXXXXXXXXXXXXXXXXXXXXXXXXXXXXXXXXXXXXXXXXXXXXXXXXXXXoooooooooooooooooooooooooooooooooooooooooooooooooooooooo",
"XXXXXXXXXXXXXXXXXXXXXXXXXXXXXXXXXXXXXXXXXXXXXXXXXXXXXXXXXXXXXXXXXXXXXXXXoooooooooooooooooooooooooooooooooooooooooooooooooooooooo",
"XXXXXXXXXXXXXXXXXXXXXXXXXXXXXXXXXXXXXXXXXXXXXXXXXXXXXXXXXXXXXXXXXXXXXXXXoooooooooooooooooooooooooooooooooooooooooooooooooooooooo",
"XXXXXXXXXXXXXXXXXXXXXXXXXXXXXXXXXXXXXXXXXXXXXXXXXXXXXXXXXXXXXXXXXXXXXXXXoooooooooooooooooooooooooooooooooooooooooooooooooooooooo",
"XXXXXXXXXXXXXXXXXXXXXXXXXXXXXXXXXXXXXXXXXXXXXXXXXXXXXXXXXXXXXXXXXXXXXXXXoooooooooooooooooooooooooooooooooooooooooooooooooooooooo",
"XXXXXXXXXXXXXXXXXXXXXXXXXXXXXXXXXXXXXXXXXXXXXXXXXXXXXXXXXXXXXXXXXXXXXXXXoooooooooooooooooooooooooooooooooooooooooooooooooooooooo",
"XXXXXXXXXXXXXXXXXXXXXXXXXXXXXXXXXXXXXXXXXXXXXXXXXXXXXXXXXXXXXXXXXXXXXXXXoooooooooooooooooooooooooooooooooooooooooooooooooooooooo",
"XXXXXXXXXXXXXXXXXXXXXXXXXXXXXXXXXXXXXXXXXXXXX                                                             oooooooooooooooooooooo",
"XXXXXXXXXXXXXXXXXXXXXXXXXXXXXXXXXXXXXXXXXXXXX                                                             oooooooooooooooooooooo",
"XXXXXXXXXXXXXXXXXXXXXXXXXXXXXXXXXXXXXXXXXXXXX                                                             oooooooooooooooooooooo",
"XXXXXXXXXXXXXXXXXXXXXXXXXXXXXXXXXXXXXXXXXXXXX                                                             oooooooooooooooooooooo",
"XXXXXXXXXXXXXXXXXXXXXXXXXXXXXXXXXXXXXXXXXXXXX                                                             oooooooooooooooooooooo",
"XXXXXXXXXXXXXXXXXXXXXXXXXXXXXXXXXXXXXXXXXXXXX                                                             oooooooooooooooooooooo",
"XXXXXXXXXXXXXXXXXXXXXXXXXXXXXXXXXXXXXXXXXXXXX                                                             oooooooooooooooooooooo",
"XXXXXXXXXXXXXXXXXXXXXXXXXXXXXXXXXXXXXXXXXXXXX                                                             oooooooooooooooooooooo",
"XXXXXXXXXXXXXXXXXXXXXXXXXXXXXXXXXXXXXXXXXXXXX                                                             ......................",
"XXXXXXXXXXXXXXXXXXXXXXXXXXXXXXXXXXXXXXXXXXXXX                                                             ......................",
"XXXXXXXXXXXXXXXXXXXXXXXXXXXXXXXXXXXXXXXXXXXXX                                                             ......................",
"XXXXXXXXXXXXXXXXXXXXXXXXXXXXXXXXXXXXXXXXXXXXX                                                             ......................",
"XXXXXXXXXXXXXXXXXXXXXXXXXXXXXXXXXXXXXXXXXXXXX                                                             ......................",
"XXXXXXXXXXXX.................................                                                             ......................",
"XXXXXXXXXXXX.................................                                                             ......................",
"XXXXXXXXXXXX.................................                                                             ......................",
"XXXXXXXXXXXX.................................                                                             ......................",
"XXXXXXXXXXXX.................................                                                             ......................",
"XXXXXXXXXXXX.................................                                                             ......................",
"XXXXXXXXXXXX.................................                                                             ......................",
"XXXXXXXXXXXX.................................                                                             ......................",
"XXXXXXXXXXXX...........................................XXXXXXXXXXXX.............................................................",
"XXXXXXXXXXXX...........................................XXXXXXXXXXXX.............................................................",
"XXXXXXXXXXXX...........................................XXXXXXXXXXXX.............................................................",
"XXXXXXXXXXXX...........................................XXXXXXXXXXXX.............................................................",
"XXXXXXXXXXXX...........................................XXXXXXXXXXXX.............................................................",
"XXXXXXXXXXXX...........................................XXXXXXXXXXXX.............................................................",
"oooooooooooo...........................................oooooooooooo.............................................................",
"oooooooooooo...........................................oooooooooooo.............................................................",
"oooooooooooo...........................................oooooooooooo.............................................................",
"oooooooooooo...........................................oooooooooooo.............................................................",
"oooooooooooo...........................................oooooooooooo.............................................................",
"oooooooooooo...........................................oooooooooooo.............................................................",
"oooooooooooo...........................................oooooooooooo.............................................................",
"oooooooooooo...........................................oooooooooooo.............................................................",
"oooooooooooo...........................................oooooooooooo.............................................................",
"oooooooooooo...........................................XXXXXXXXXXXX.............................................................",
"oooooooooooo...........................................XXXXXXXXXXXX.............................................................",
"oooooooooooo...........................................XXXXXXXXXXXX.............................................................",
"oooooooooooo...........................................XXXXXXXXXXXX.............................................................",
"oooooooooooo...........................................XXXXXXXXXXXXXXXXXXXXXXXXXXXXXXXXXXXXXXXXXXXXXXXXXXXXXXXXXXXXXXXXXXXXXXXXX",
"oooooooooooo...........................................XXXXXXXXXXXXXXXXXXXXXXXXXXXXXXXXXXXXXXXXXXXXXXXXXXXXXXXXXXXXXXXXXXXXXXXXX",
"oooooooooooo...........................................XXXXXXXXXXXXXXXXXXXXXXXXXXXXXXXXXXXXXXXXXXXXXXXXXXXXXXXXXXXXXXXXXXXXXXXXX",
"oooooooooooo...........................................XXXXXXXXXXXXXXXXXXXXXXXXXXXXXXXXXXXXXXXXXXXXXXXXXXXXXXXXXXXXXXXXXXXXXXXXX",
"oooooooooooo...........................................XXXXXXXXXXXXXXXXXXXXXXXXXXXXXXXXXXXXXXXXXXXXXXXXXXXXXXXXXXXXXXXXXXXXXXXXX",
"oooooooooooo...........................................XXXXXXXXXXXXXXXXXXXXXXXXXXXXXXXXXXXXXXXXXXXXXXXXXXXXXXXXXXXXXXXXXXXXXXXXX",
"oooooooooooo...........................................XXXXXXXXXXXXXXXXXXXXXXXXXXXXXXXXXXXXXXXXXXXXXXXXXXXXXXXXXXXXXXXXXXXXXXXXX",
"oooooooooooo...........................................XXXXXXXXXXXXXXXXXXXXXXXXXXXXXXXXXXXXXXXXXXXXXXXXXXXXXXXXXXXXXXXXXXXXXXXXX",
"oooooooooooo...........................................XXXXXXXXXXXXXXXXXXXXXXXXXXXXXXXXXXXXXXXXXXXXXXXXXXXXXXXXXXXXXXXXXXXXXXXXX",
"oooooooooooo...........................................XXXXXXXXXXXXXXXXXXXXXXXXXXXXXXXXXXXXXXXXXXXXXXXXXXXXXXXXXXXXXXXXXXXXXXXXX",
"oooooooooooo...........................................XXXXXXXXXXXXXXXXXXXXXXXXXXXXXXXXXXXXXXXXXXXXXXXXXXXXXXXXXXXXXXXXXXXXXXXXX",
"oooooooooooo...........................................XXXXXXXXXXXXXXXXXXXXXXXXXXXXXXXXXXXXXXXXXXXXXXXXXXXXXXXXXXXXXXXXXXXXXXXXX",
"oooooooooooo...........................................XXXXXXXXXXXXXXXXXXXXXXXXXXXXXXXXXXXXXXXXXXXXXXXXXXXXXXXXXXXXXXXXXXXXXXXXX",
"oooooooooooo...........................................XXXXXXXXXXXXXXXXXXXXXXXXXXXXXXXXXXXXXXXXXXXXXXXXXXXXXXXXXXXXXXXXXXXXXXXXX",
"oooooooooooo...........................................XXXXXXXXXXXXXXXXXXXXXXXXXXXXXXXXXXXXXXXXXXXXXXXXXXXXXXXXXXXXXXXXXXXXXXXXX",
"oooooooooooo...........................................XXXXXXXXXXXXXXXXXXXXXXXXXXXXXXXXXXXXXXXXXXXXXXXXXXXXXXXXXXXXXXXXXXXXXXXXX",
"oooooooooooo...........................................XXXXXXXXXXXXXXXXXXXXXXXXXXXXXXXXXXXXXXXXXXXXXXXXXXXXXXXXXXXXXXXXXXXXXXXXX",
"oooooooooooo...........................................XXXXXXXXXXXXXXXXXXXXXXXXXXXXXXXXXXXXXXXXXXXXXXXXXXXXXXXXXXXXXXXXXXXXXXXXX",
"oooooooooooo...........................................XXXXXXXXXXXXXXXXXXXXXXXXXXXXXXXXXXXXXXXXXXXXXXXXXXXXXXXXXXXXXXXXXXXXXXXXX",
"oooooooooooo...........................................XXXXXXXXXXXXXXXXXXXXXXXXXXXXXXXXXXXXXXXXXXXXXXXXXXXXXXXXXXXXXXXXXXXXXXXXX",
"oooooooooooo...........................................XXXXXXXXXXXXXXXXXXXXXXXXXXXXXXXXXXXXXXXXXXXXXXXXXXXXXXXXXXXXXXXXXXXXXXXXX",
"oooooooooooo...........................................XXXXXXXXXXXXXXXXXXXXXXXXXXXXXXXXXXXXXXXXXXXXXXXXXXXXXXXXXXXXXXXXXXXXXXXXX",
"oooooooooooo...........................................XXXXXXXXXXXXXXXXXXXXXXXXXXXXXXXXXXXXXXXXXXXXXXXXXXXXXXXXXXXXXXXXXXXXXXXXX",
"oooooooooooo...........................................XXXXXXXXXXXXXXXXXXXXXXXXXXXXXXXXXXXXXXXXXXXXXXXXXXXXXXXXXXXXXXXXXXXXXXXXX",
"oooooooooooo...........................................XXXXXXXXXXXXXXXXXXXXXXXXXXXXXXXXXXXXXXXXXXXXXXXXXXXXXXXXXXXXXXXXXXXXXXXXX",
"oooooooooooo...........................................XXXXXXXXXXXXXXXXXXXXXXXXXXXXXXXXXXXXXXXXXXXXXXXXXXXXXXXXXXXXXXXXXXXXXXXXX",
"oooooooooooo...........................................XXXXXXXXXXXXXXXXXXXXXXXXXXXXXXXXXXXXXXXXXXXXXXXXXXXXXXXXXXXXXXXXXXXXXXXXX",
"oooooooooooo...........................................XXXXXXXXXXXXXXXXXXXXXXXXXXXXXXXXXXXXXXXXXXXXXXXXXXXXXXXXXXXXXXXXXXXXXXXXX",
"oooooooooooo...........................................XXXXXXXXXXXXXXXXXXXXXXXXXXXXXXXXXXXXXXXXXXXXXXXXXXXXXXXXXXXXXXXXXXXXXXXXX",
"oooooooooooo...........................................XXXXXXXXXXXXXXXXXXXXXXXXXXXXXXXXXXXXXXXXXXXXXXXXXXXXXXXXXXXXXXXXXXXXXXXXX",
"oooooooooooo...........................................XXXXXXXXXXXXXXXXXXXXXXXXXXXXXXXX                                         ",
"oooooooooooo...........................................XXXXXXXXXXXXXXXXXXXXXXXXXXXXXXXX                                         ",
"oooooooooooo...........................................XXXXXXXXXXXXXXXXXXXXXXXXXXXXXXXX                                         ",
"oooooooooooo...........................................XXXXXXXXXXXXXXXXXXXXXXXXXXXXXXXX                                         ",
"oooooooooooo...........................................XXXXXXXXXXXXXXXXXXXXXXXXXXXXXXXX                                         ",
"oooooooooooo...........................................XXXXXXXXXXXXXXXXXXXXXXXXXXXXXXXX                                         ",
"oooooooooooo...........................................XXXXXXXXXXXXXXXXXXXXXXXXXXXXXXXX                                         ",
"oooooooooooo........                     ..............XXXXXXXXXXXXXXXXXXXXXXXXXXXXXXXX                                         ",
"oooooooooooo........                     ..............XXXXXXXXXXXXXXXXXXXXXXXXXXXXXXXX                                         ",
"oooooooooooo........                     ..............XXXXXXXXXXXXXXXXXXXXXXXXXXXXXXXX                                         ",
"oooooooooooo........                     ..............XXXXXXXXXXXXXXXXXXXXXXXXXXXXXXXX                                         ",
"oooooooooooo........                     ..............XXXXXXXXXXXXXXXXXXXXXXXXXXXXXXXX                                         ",
"oooooooooooo........                     ..............XXXXXXXXXXXXXXXXXXXXXXXXXXXXXXXX                                         ",
"oooooooooooo........                     ..............XXXXXXXXXXXXXXXXXXXXXXXXXXXXXXXX                                         ",
"oooooooooooooooooooo                     ooooXXXXXXXXXXXXXXXXXXXXXXXXXXXXXXXXXXXXXXXXXX                                         ",
"oooooooooooooooooooo                     ooooXXXXXXXXXXXXXXXXXXXXXXXXXXXXXXXXXXXXXXXXXX                                         ",
"oooooooooooooooooooo                     ooooXXXXXXXXXXXXXXXXXXXXXXXXXXXXXXXXXXXXXXXXXX                                         ",
"oooooooooooooooooooo                     ooooXXXXXXXXXXXXXXXXXXXXXXXXXXXXXXXXXXXXXXXXXX                                         ",
"oooooooooooooooooooo                     ooooXXXXXXXXXXXXXXXXXXXXXXXXXXXXXXXXXXXXXXXXXX                                         ",
"oooooooooooooooooooo                     ooooXXXXXXXXXXXXXXXXXXXXXXXXXXXXXXXXXXXXXXXXXX                                         ",
"oooooooooooooooooooo                     ooooXXXXXXXXXXXXXXXXXXXXXXXXXXXXXXXXXXXXXXXXXX                                         ",
"oooooooooooooooooooo                     ooooXXXXXXXXXXXXXXXXXXXXXXXXXXXXXXXXXXXXXXXXXX                                         ",
"oooooooooooooooooooo                     ooooXXXXXXXXXXXXXXXXXXXXXXXXXXXXXXXXXXXXXXXXXX                                         ",
"oooooooooooooooooooo                     ooooXXXXXXXXXXXXXXXXXXXXXXXXXXXXXXXXXXXXXXXXXX                                         ",
"oooooooooooooooooooo                     ooooXXXXXXXXXXXXXXXXXXXXXXXXXXXXXXXXXXXXXXXXXX                                         ",
"oooooooooooooooooooo                     ooooXXXXXXXXXXXXXXXXXXXXXXXXXXXXXXXXXXXXXXXXXX                                         ",
"oooooooooooooooooooo                     ooooXXXXXXXXXXXXXXXXXXXXXXXXXXXXXXXXXXXXXXXXXX                                         ",
"oooooooooooooooooooo                     ooooXXXXXXXXXXXXXXXXXXXXXXXXXXXXXXXXXXXXXXXXXX                                         ",
"oooooooooooooooooooo                     ooooXXXXXXXXXXXXXXXXXXXXXXXXXXXXXXXXXXXXXXXXXX                                         ",
"oooooooooooooooooooo                     ooooXXXXXXXXXXXXXXXXXXXXXXXXXXXXXXXXXXXXXXXXXX                                         ",
"oooooooooooooooooooo                     ooooXXXXXXXXXXXXXXXXXXXXXXXXXXXXXXXXXXXXXXXXXX                                         ",
"oooooooooooooooooooo                     ooooXXXXXXXXXXXXXXXXXXXXXXXXXXXXXXXXXXXXXXXXXX                                         ",
"oooooooooooooooooooo                     ooooXXXXXXXXXXXXXXXXXXXXXXXXXXXXXXXXXXXXXXXXXX                                         ",
"oooooooooooooooooooo                     ooooXXXXXXXXXXXXXXXXXXXXXXXXXXXXXXXXXXXXXXXXXX                                         ",
"oooooooooooooooooooo                     ooooXXXXXXXXXXXXXXXXXXXXXXXXXXXXXXXXXXXXXXXXXX                                         ",
"oooooooooooooooooooo                     ooooXXXXXXXXXXXXXXXXXXXXXXXXXXXXXXXXXXXXXXXXXX                                         ",
"....................                     ...............XXXXXXXXXXXXXXXXXXXXXXXXXXXXXXX                                         ",
"....................                     ...............XXXXXXXXXXXXXXXXXXXXXXXXXXXXXXX                                         ",
"....................                     ...............XXXXXXXXXXXXXXXXXXXXXXXXXXXXXXX                                         ",
"....................                     ...............XXXXXXXXXXXXXXXXXXXXXXXXXXXXXXX                                         ",
"....................                     ...............XXXXXXXXXXXXXXXXXXXXXXXXXXXXXXX                                         ",
"....................                     ...............XXXXXXXXXXXXXXXXXXXXXXXXXXXXXXX                                         ",
"....................                     ...............XXXXXXXXXXXXXXXXXXXXXXXXXXXXXXX                                         ",
"........................................................XXXXXXXXXXXXXXXXXXXXXXXXXXXXXXX                                         ",
"........................................................XXXXXXXXXXXXXXXXXXXXXXXXXXXXXXX                                         ",
"........................................................XXXXXXXXXXXXXXXXXXXXXXXXXXXXXXX                                         ",
"........................................................XXXXXXXXXXXXXXXXXXXXXXXXXXXXXXX                                         ",
"........................................................XXXXXXXXXXXXXXXXXXXXXXXXXXXXXXX                                         ",
"........................................................XXXXXXXXXXXXXXXXXXXXXXXXXXXXXXX                                         ",
"........................................................XXXXXXXXXXXXXXXXXXXXXXXXXXXXXXX                                         ",
"........................................................XXXXXXXXXXXXXXXXXXXXXXXXXXXXXXX                                         "
};
