/* XPM */
static char *_68b54733e1746bde97a881f09cf0d954u0ynjeWlCNcnfYY[] = {
/* columns rows colors chars-per-pixel */
"128 128 15 1 ",
"  c gray11",
". c #393939",
"X c #555555",
"o c #4164C0",
"O c #4A6BC3",
"+ c #4B6DC3",
"@ c #5474C6",
"# c #6581CC",
"$ c #6C87CE",
"% c #7A92D3",
"& c #92A6DB",
"* c #9CAEDE",
"= c #ABBBE3",
"- c #CBD4EE",
"; c #D7DEF2",
/* pixels */
"XXXXXXXXXXXXXXXXXXXXXXXXXXXXXXXXXXXXXXXXXXXXXXXXXXXXXXXXXXXXXXXXXXXXXXXXXXXXXXXXXXXXXXXXXXXXXXX XXXXXXXXXXXXXXXXXXXXXXXXXXXXXXX ",
"XXXXXXXXXXXXXXXXXXXXXXXXXXXXXXXXXXXXXXXXXXXXXXXXXXXXXXXXXXXXXXXXXXXXXXXXXXXXXXXXXXXXXXXXXXXXXX  XXXXXXXXXXXXXXXXXXXXXXXXXXXXXX  ",
"XXXXXXXXXXXXXXXXXXXXXXXXXXXXXXXXXXXXXXXXXXXXXXXXXXXXXXXXXXXXXXXXXXXXXXXXXXXXXXXXXXXXXXXXXXXXX   XXXXXXXXXXXXXXXXXXXXXXXXXXXXX   ",
"XXX..........................................................................................   XXX..........................   ",
"XXX..........................................................................................   XXX..........................   ",
"XXX..........................................................................................   XXX..........................   ",
"XXX..........................................................................................   XXX..........................   ",
"XXX..........................................................................................   XXX..........................   ",
"XXX..........................................................................................   XXX..........................   ",
"XXX..........................................................................................   XXX..........................   ",
"XXX..........................................................................................   XXX..........................   ",
"XXX..........................................................................................   XXX..........................   ",
"XXX..........................................................................................   XXX..........................   ",
"XXX..........................................................................                   XX                X..........   ",
"XXX..........................................................................                   X                XX..........   ",
"XXX..........................................................................                                   XXX..........   ",
"XXX..........................................................................   oooooooooo+++++$$$$$******;;;;;*XXX..........   ",
"XXX..........................................................................   oooooooooo++++$$$$$$*****;;;;;;*XXX..........   ",
"XXX..........................................................................   ooooooooo+++++$$$$$******;;;;;-*XXX..........   ",
"XXX..........................................................................   ooooooooo+++++$$$$$******;;;;;**XXX..........   ",
"XXX..........................................................................   ooooooooo+++++$$$$$*****;;;;;;**XXX..........   ",
"XXX..........................................................................   ooooooooo++++$$$$$&*****;;;;;;**XXX..........   ",
"XXX..........................................................................   oooooooo+++++$$$$$******;;;;;***XXX..........   ",
"XXX..........................................................................   oooooooo+++++$$$$$******;;;;;***XXX..........   ",
"XXX..........................................................................   oooooooo++++$$$$$$*****;;;;;;***XXX..........   ",
"XXX..........................................................................   ooooooo+++++$$$$$******;;;;;;***XXX..........   ",
"XXX..........................................................................   ooooooo+++++$$$$$******;;;;;****XXX..........   ",
"XXX..........................................................................   ooooooo+++++$$$$$******;;;;;****XXX..........   ",
"XXX..........................................................................   ooooooo++++$$$$$$*****;;;;;;****XXX..........   ",
"XX                                                X..........................   oooooo+++++$$$$$******;;;;;=****XXX..........   ",
"X                                                XX..........................   oooooo+++++$$$$$******;;;;;*****XXX..........   ",
"                                                XXX..........................   oooooo+++++$$$$$*****;;;;;;*****XXX..........   ",
"XXXXXXXXXXXXXXXXXXXXXXXXXXXXXXXXXXXXXXXXXXXXXXX XXX..........................   oooooo++++$$$$$******;;;;;;*****XXX..........   ",
"XXXXXXXXXXXXXXXXXXXXXXXXXXXXXXXXXXXXXXXXXXXXXX  XXX..........................   ooooo+++++$$$$$******;;;;;******XXX..........   ",
"XXXX.........................................   XXX..........................   ooooo+++++$$$$$******;;;;;******XXX..........   ",
"XXXX.........................................   XXX..........................   ooooo++++$$$$$$*****;;;;;;******XXX..........   ",
"XXXX.........................................   XXX..........................   oooo+++++$$$$$******;;;;;;*****$XXX..........   ",
"XXXX.........................................   XXX..........................   oooo+++++$$$$$******;;;;;******$XXX..........   ",
"XXXX.........................................   XXX..........................   oooo+++++$$$$$******;;;;;******$XXX..........   ",
"XXXX.........................................   XXX..........................   oooo++++$$$$$$*****;;;;;;******$XXX..........   ",
"XXXX.........................................   XXX..........................   ooo+++++$$$$$******;;;;;;*****$$XXX..........   ",
"XXXX.........................................   XXX..........................   ooo+++++$$$$$******;;;;;******$$XXX..........   ",
"XXXX.........................................   XXX..........................   ooo+++++$$$$$*****;;;;;;******$$XXX..........   ",
"XXXX.........................................   XXX..........................   ooo++++$$$$$&*****;;;;;;*****$$$XXX..........   ",
"XXXX.........................................   XXX..........................   oo+++++$$$$$******;;;;;******$$$XXX..........   ",
"XXXX.........................................   XXX..........................   oo+++++$$$$$******;;;;;******$$$XXX..........   ",
"XXXX.........................................   XXX..........................   oo++++$$$$$$*****;;;;;;******$$$XXX..........   ",
"XXXX.........................................   XXX..........................   o+++++$$$$$******;;;;;;*****$$$$XXX..........   ",
"XXXX.........................................   XXX..........................   o+++++$$$$$******;;;;;******$$$$XXX..........   ",
"XXXX.........................................   XXX..........................   o+++++$$$$$******;;;;;******$$$$XXX..........   ",
"XXXX.........................................   XXX..........................   o++++$$$$$$*****;;;;;;*****$$$$$XXX..........   ",
"XXXX.........................................   XXX..........................   +++++$$$$$******;;;;;;*****$$$$$XXX..........   ",
"XXXX.........................................   XXX..........................   +++++$$$$$******;;;;;******$$$$$XXX..........   ",
"XXXX.........................................   XXX..........................   +++++$$$$$*****;;;;;;******$$$$$XXX..........   ",
"XXXX.........................................   XXX..........................   ++++$$$$$******;;;;;;*****$$$$$$XXX..........   ",
"XXXX.........................................   XXX..........................   ++++$$$$$******;;;;;-*****$$$$$+XXX..........   ",
"XXXX.........................................   XXX..........................   ++++$$$$$******;;;;;******$$$$$+XXX..........   ",
"XXXX.........................................   XXX..........................   +++$$$$$$*****;;;;;;******$$$$$+XXX..........   ",
"XXXX.........................................   XXX..........................   +++$$$$$******;;;;;;*****$$$$$++XXX..........   ",
"XXXX.........................................   XXX..........................   +++$$$$$******;;;;;******$$$$$++XXX..........   ",
"XXXX.........................................   XXX..........................   +++$$$$$*****=;;;;;******$$$$$++XXX..........   ",
"XXXX.........................................   XX                              ++$$$$$$*****;;;;;;*****%$$$$$++XXX..........   ",
"XXXX.........................................   X                               ++$$$$$******;;;;;;*****$$$$$+++XXX..........   ",
"XXXX.........................................                                   ++$$$$$******;;;;;******$$$$$+++XXX..........   ",
"XXXX.........................................   XXXXXXXXXXXXXXXXXXXXXXXXXXXXXXX ++$$$$$*****;;;;;;******$$$$$+++XXX..........   ",
"XXXX.........................................   XXXXXXXXXXXXXXXXXXXXXXXXXXXXXX  +$$$$$******;;;;;;*****$$$$$$+++XXX..........   ",
"XXXX.........................................   XXXXXXXXXXXXXXXXXXXXXXXXXXXXX   +$$$$$******;;;;;******$$$$$++++XXX..........   ",
"XXXX.........................................   XXX..........................   +$$$$$******;;;;;******$$$$$++++XXX..........   ",
"XXXX.........................................   XXX..........................   +$$$$$*****;;;;;;******$$$$$++++XXX..........   ",
"XXXX.........................................   XXX..........................   $$$$$******;;;;;;*****$$$$$#++++XXX..........   ",
"XXXX.........................................   XXX..........................   $$$$$******;;;;;******$$$$$+++++XXX..........   ",
"XXXX.........................................   XXX..........................   $$$$$******;;;;;******$$$$$+++++XXX..........   ",
"XXXX.........................................   XXX..........................   $$$$$*****;;;;;;*****$$$$$$++++oXXX..........   ",
"XXXX.........................................   XXX..........................   $$$$******;;;;;;*****$$$$$+++++oXXX..........   ",
"XXXX.........................................   XXX..........................   $$$$******;;;;;******$$$$$+++++oXXX..........   ",
"XXXX.........................................   XXX..........................   $$$$*****;;;;;;******$$$$$+++++oXXX..........   ",
"XXXX.........................................   XXX..........................   $$$%*****;;;;;;*****$$$$$$++++ooXXX..........   ",
"XXXX.........................................   XXX..........................   $$$******;;;;;=*****$$$$$+++++ooXXX..........   ",
"XXXX.........................................   XXX..........................   $$$******;;;;;******$$$$$+++++ooXXX..........   ",
"XXXX.........................................   XXX..........................   $$$*****;;;;;;******$$$$$++++oooXXX..........   ",
"XXXX.........................................   XXX..........................   $$******;;;;;;*****$$$$$$++++oooXXX..........   ",
"XXXX.........................................   XXX..........................   $$******;;;;;******$$$$$+++++oooXXX..........   ",
"XXXX.........................................   XXX..........................   $$******;;;;;******$$$$$+++++oooXXX..........   ",
"XXXX.........................................   XXX..........................   $$*****;;;;;;*****$$$$$$++++ooooXXX..........   ",
"XXXX.........................................   XXX..........................   $******;;;;;;*****$$$$$+++++ooooXXX..........   ",
"XXXX.........................................   XXX..........................   $******;;;;;******$$$$$+++++ooooXXX..........   ",
"XXXX.........................................   XXX..........................   $*****;;;;;;******$$$$$+++++ooooXXX..........   ",
"XXXX.........................................   XXX..........................   ******;;;;;;*****$$$$$$++++oooooXXX..........   ",
"XXXX.........................................   XXX..........................   ******;;;;;******$$$$$+++++oooooXXX..........   ",
"XXXX.........................................   XXX..........................   ******;;;;;******$$$$$+++++oooooXXX..........   ",
"XXXX.........................................   XXX..........................   *****;;;;;;******$$$$$++++OoooooXXX..........   ",
"XXXX.........................................   XXX..........................   *****;;;;;;*****$$$$$@++++ooooooXXX..........   ",
"XXXX.........................................   XXX..........................   *****;;;;;******$$$$$+++++ooooooXXX..........   ",
"XXXX                                            XXX..........................   ****=;;;;;******$$$$$+++++ooooooXXX..........   ",
"XX                                              XXX..........................   ****;;;;;;*****&$$$$$++++oooooooXXX..........   ",
"X                                               XXX..........................   ****;;;;;;*****$$$$$+++++oooooooXXX..........   ",
" XXXXXXXXXXXXXXXXXXXXXXXXXXXXXXXXXXXXXXXXXXXXXXXXXX..........................   ****;;;;;******$$$$$+++++oooooooXXX..........   ",
"X XXXXXXXXXXXXXXXXXXXXXXXXXXXXXXXXXXXXXXXXXXXXXXXXX..........................   ***;;;;;;******$$$$$+++++oooooooXXX..........   ",
"XX XXXXXXXXXXXXXXXXXXXXXXXXXXXXXXXXXXXXXXXXXXXXXXXX..........................   ***;;;;;;*****$$$$$$++++ooooooooXXX..........   ",
"XXX..........................................................................   ***;;;;;******$$$$$+++++ooooooooXXX..........   ",
"XXX..........................................................................   ***;;;;;******$$$$$+++++ooooooooXXX..........   ",
"XXX..........................................................................   **;;;;;;******$$$$$++++oooooooooXXX..........   ",
"XXX..........................................................................   **;;;;;;*****$$$$$#++++oooooooooXXX..........   ",
"XXX..........................................................................   **;;;;;******$$$$$+++++oooooooooXXX..........   ",
"XXX..........................................................................   *-;;;;;******$$$$$+++++oooooooooXXX..........   ",
"XXX..........................................................................   *;;;;;;*****$$$$$$++++ooooooooooXXX..........   ",
"XXX..........................................................................   *;;;;;;*****$$$$$+++++ooooooooooXXX..........   ",
"XXX..........................................................................   *;;;;;******$$$$$+++++ooooooooooXXX..........   ",
"XXX..........................................................................   ;;;;;;******$$$$$+++++ooooooooooXXX..........   ",
"XXX..........................................................................   ;;;;;;*****$$$$$$++++oooooooooooXXX..........   ",
"XXX..........................................................................   ;;;;;******$$$$$+++++oooooooooooXXX..........   ",
"XXX..........................................................................   ;;;;;******$$$$$+++++oooooooooooXXX..........   ",
"XXX..........................................................................  XXXXXXXXXXXXXXXX XXXXXXXXXXXXXXXXXXX..........   ",
"XXX.......................................................................... XXXXXXXXXXXXXXXX  XXXXXXXXXXXXXXXXXXX..........   ",
"XXX..........................................................................XXXXXXXXXXXXXXXX   XXXXXXXXXXXXXXXXXXX..........   ",
"XXX..........................................................................................   XXX..........................   ",
"XXX..........................................................................................   XXX..........................   ",
"XXX..........................................................................................   XXX..........................   ",
"XXX..........................................................................................   XXX..........................   ",
"XXX..........................................................................................   XXX..........................   ",
"XXX..........................................................................................   XXX..........................   ",
"XXX..........................................................................................   XXX..........................   ",
"XXX..........................................................................................   XXX..........................   ",
"XXX..........................................................................................   XXX..........................   ",
"XXX..........................................................................................   XXX..........................   ",
"XX                                                                                              XX                              ",
"X                                                                                               X                               ",
"                                                                                                                                "
};
