/* XPM */
static char *_ada1b9a91804e1e8019cbd1c2ed36baSZgJfSuKU2JS9SI4[] = {
/* columns rows colors chars-per-pixel */
"128 128 3 1 ",
"  c #10121F",
". c #20253F",
"X c #323A62",
/* pixels */
"XXXXXXXXXXXXXXXXXXXXXXXXXXXXXXXXXXXXXXXXXXXXXXXXXXXXXXXXXXXXXXXXXXXXXXXXXXXXXXXXXXXXXXXXXXXXXXXXXXXXXXXXXXXXXXXXXXXXXXXXXXXXXXXX",
"XXXXXXXXXXXXXXXXXXXXXXXXXXXXXXXXXXXXXXXXXXXXXXXXXXXXXXXXXXXXXXXXXXXXXXXXXXXXXXXXXXXXXXXXXXXXXXXXXXXXXXXXXXXXXXXXXXXXXXXXXXXXXXXX",
"XXXXXXXXXXXXXXXXXXXXXXXXXXXXXXXXXXXXXXXXXXXXXXXXXXXXXXXXXXXXXXXXXXXXXXXXXXXXXXXXXXXXXXXXXXXXXXXXXXXXXXXXXXXXXXXXXXXXXXXXXXXXXXXX",
"XXXXXXXXXXXXXXXXXXXXXXXXXXXXXXXXXXXXXXXXXXXXXXXXXXXXXXXXXXXXXXXXXXXXXXXXXXXXXXXXXXXXXXXXXXXXXXXXXXXXXXXXXXXXXXXXXXXXXXXXXXXXXXXX",
"XXXXXXXXXXXXXXXXXXXXXXXXXXXXXXXXXXXXXXXXXXXXXXXXXXXXXXXXXXXXXXXXXXXXXXXXXXXXXXXXXXXXXXXXXXXXXXXXXXXXXXXXXXXXXXXXXXXXXXXXXXXXXXXX",
"XXXXXXXXXXXXXXXXXXXXXXXXXXXXXXXXXXXXXXXXXXXXXXXXXXXXXXXXXXXXXXXXXXXXXXXXXXXXXXXXXXXXXXXXXXXXXXXXXXXXXXXXXXXXXXXXXXXXXXXXXXXXXXXX",
"XXXXX..............................XXXXXXXXXXXXXXXXXXXXXXXXXXXXXXXXXXXXXXXXXXXXXXXXXXXXXXXXXXXXXXXXXXXXXXXXXXXXXXXXXXXXXXXXXXXXX",
"XXXXX..............................XXXXXXXXXXXXXXXXXXXXXXXXXXXXXXXXXXXXXXXXXXXXXXXXXXXXXXXXXXXXXXXXXXXXXXXXXXXXXXXXXXXXXXXXXXXXX",
"XXXXX..............................XXXXXXXXXXXXXXXXXXXXXXXXXXXXXXXXXXXXXXXXXXXXXXXXXXXXXXX                                      ",
"XXXXX..............................XXXXXXXXXXXXXXXXXXXXXXXXXXXXXXXXXXXXXXXXXXXXXXXXXXXXXXX                                      ",
"XXXXX..............................XXXXXXXXXXXXXXXXXXXXXXXXXXXXXXXXXXXXXXXXXXXXXXXXXXXXXXX                                      ",
"XXXXX..............................XXXXXXXXXXXXXXXXXXXXXXXXXXXXXXXXXXXXXXXXXXXXXXXXXXXXXXX                                      ",
"XXXXX..............................XXXXXXXXXXXXXXXXXXXXXXXXXXXXXXXXXXXXXXXXXXXXXXXXXXXXXXX                                      ",
"XXXXX..............................XXXXXXXXXXXXXXXXXXXXXXXXXXXXXXXXXXXXXXXXXXXXXXXXXXXXXXX                                      ",
"XXXXX..............................XXXXXXXXXXXXXXXXXXXXXXXXXXXXXXXXXXXXXXXXXXXXXXXXXXXXXXX                                      ",
"XXXXX..............................XXXXXXXXXXXXXXXXXXXXXXXXXXXXXXXXXXXXXXXXXXXXXXXXXXXXXXX                                      ",
"XXXXX..............................XXXXXXXXXXXXXXXXXXXXXXXXXXXXXXXXXXXXXXXXXXXXXXXXXXXXXXX                                      ",
"XXXXX..............................XXXXXXXXXXXXXXXXXXXXXXXXXXXXXXXXXXXXXXXXXXXXXXXXXXXXXXX                                      ",
"XXXXX..............................XXXXXXXXXXXXXXXXXXXXXXXXXXXXXXXXXXXXXXXXXXXXXXXXXXXXXXX                                      ",
"XXXXX..............................XXXXXXXXXXXXXXXXXXXXXXXXXXXXXXXXXXXXXXXXXXXXXXXXXXXXXXX                                      ",
"XXXXX..............................XXXXXXXXX..............................................                                      ",
"XXXXX..............................XXXXXXXXX..............................................                                      ",
"XXXXX..............................XXXXXXXXX..............................................                                      ",
"XXXXX..............................XXXXXXXXX..............................................                                      ",
"XXXXX..............................XXXXXXXXX..............................................                                      ",
"XXXXX..............................XXXXXXXXX..............................................                                      ",
"XXXXX..............................XXXXXXXXX..............................................                                      ",
"XXXXX..............................XXXXXXXXX..............................................                                      ",
"XXXXX..............................XXXXXXXXX..............................................                                      ",
"XXXXX..............................XXXXXXXXX..............................................                                      ",
"XXXXX..............................XXXXXXXXX..............................................                                      ",
"XXXXX..............................XXXXXXXXX..............................................                                      ",
"XXXXX..............................XXXXXXXXX..............................................                                      ",
"XXXXX..............................XXXXXXXXX..............................................                                      ",
"XXXXX..............................XXXXXXXXX..............................................                                      ",
"XXXXX..............................XXXXXXXXX..............................................                                      ",
"XXXXX..............................XXXXXXXXX..............................................                                      ",
"XXXXX..............................XXXXXXXXX..............................................                                      ",
"XXXXX..............................XXXXXXXXX..............................................                                      ",
"XXXXX..............................XXXXXXXXX..............................................                                      ",
"XXXXX..............................XXXXXXXXX..............................................                                      ",
"XXXXX..............................XXXXXXXXX..............................................                                      ",
"XXXXX..............................XXXXXXXXX..............................................                                      ",
"XXXXX...............                                    ..................................                                      ",
"XXXXX...............                                    ..................................                                      ",
"XXXXX...............                                    ..................................                                      ",
"XXXXX...............                                    .............................................................XXXXXXXXXXX",
"XXXXX...............                                    .............................................................XXXXXXXXXXX",
"XXXXX...............                                    .............................................................XXXXXXXXXXX",
"XXXXX...............                                    .............................................................XXXXXXXXXXX",
"XXXXX...............                                    .............................................................XXXXXXXXXXX",
"XXXXX...............                                    .............................................................XXXXXXXXXXX",
"XXXXX...............                                    .............................................................XXXXXXXXXXX",
"XXXXX...............                                    .............................................................XXXXXXXXXXX",
"XXXXX...............                                    .............................................................XXXXXXXXXXX",
"XXXXX...............                                    .............................................................XXXXXXXXXXX",
"XXXXXXXXXXXXXXXXXXXX                                    .............................................................XXXXXXXXXXX",
"XXXXXXXXXXXXXXXXXXXX                                    .............................................................XXXXXXXXXXX",
"XXXXXXXXXXXXXXXXXXXX                                    .............................................................XXXXXXXXXXX",
"XXXXXXXXXXXXXXXXXXXX                                    .............................................................XXXXXXXXXXX",
"XXXXXXXXXXXXXXXXXXXX                                    .............................................................XXXXXXXXXXX",
"XXXXXXXXXXXXXXXXXXXX                                    ..............                       ........................XXXXXXXXXXX",
"XXXXXXXXXXXXXXXXXXXX                                    ..............                       ........................XXXXXXXXXXX",
"XXXXXXXXXXXXXXXXXXXX                                    ..............                       ........................XXXXXXXXXXX",
"XXXXXXXXXXXXXXXXXXXX                                    ..............                       ........................XXXXXXXXXXX",
"XXXXXXXXXXXXXXXXXXXX                                    ..............                       ........................XXXXXXXXXXX",
"XXXXXXXXXXXXXXXXXXXX                                    ..............                       ........................XXXXXXXXXXX",
"XXXXXXXXXXXXXXXXXXXX                                    ..............                       ........................XXXXXXXXXXX",
"XXXXXXXXXXXXXXXXXXXX                                    ..............                       ........................XXXXXXXXXXX",
"XXXXXXXXXXXXXXXXXXXX                                    ..............                       ........................XXXXXXXXXXX",
"XXXXXXXXXXXXXXXXXXXX                                    ..............                       ........................XXXXXXXXXXX",
"XXXXXXXXXXXXXXXXXXXX                                    ..............                       ........................XXXXXXXXXXX",
"XXXXXXXXXXXXXXXXXXXX                                    ..............                       ........................XXXXXXXXXXX",
"XXXXXXXXXXXXXXXXXXXX                                    ..............                       ........................XXXXXXXXXXX",
"XXXXXXXXXXXXXXXXXXXX                                    ..............                       ........................XXXXXXXXXXX",
"XXXXXXXXXXXXXXXXXXXX                                    ..............                       ........................XXXXXXXXXXX",
"XXXXXXXXXXXXXXXXXXXX                                    ..............                       ........................XXXXXXXXXXX",
"XXXXXXXXXXXXXXXXXXXX                                    ..............                       ........................XXXXXXXXXXX",
"XXXXXXXXXXXXXXXXXXXX                                    ..............                       ........................XXXXXXXXXXX",
"XXXXXXXXXXXXXXXXXXXX                                    ..............                       ........................XXXXXXXXXXX",
"XXXXXXXXXXXXXXXXXXXX                                    ..............                       ........................XXXXXXXXXXX",
"XXXXXXXXXXXXXXXXXXXX                                    ..............                       ........................XXXXXXXXXXX",
"XXXXXXXXXXXXXXXXXXXX                                    ..............                       ........................XXXXXXXXXXX",
"XXXXXXXXXXXXXXXXXXXX                                    ..............                       ........................XXXXXXXXXXX",
"XXXXXXXXXXXXXXXXXXXX                                    ..............                       ........................XXXXXXXXXXX",
"XXXXXXXXXXXXXXXXXXXX                                    ..............                       ........................XXXXXXXXXXX",
"XXXXXXXXXXXXXXXXXXXX                                    ..............                       ........................XXXXXXXXXXX",
"XXXXXXXXXXXXXXXXXXXX                                    ..............                       ........................XXXXXXXXXXX",
"XXXXXXXXXXXXXXXXXXXXXXXXXXXXXXXXXXXXXXXXXXXXXXXXXXXXXXXXXXXXXXXXXXXXXX                       XXXXXXXXXXXXXXXXXXXXXXXXXXXXXXXXXXX",
"XXXXXXXXXXXXXXXXXXXXXXXXXXXXXXXXXXXXXXXXXXXXXXXXXXXXXXXXXXXXXXXXXXXXXX                       XXXXXXXXXXXXXXXXXXXXXXXXXXXXXXXXXXX",
"XXXXXXXXXXXXXXXXXXXXXXXXXXXXXXXXXXXXXXXXXXXXXXXXXXXXXXXXXXXXXXXXXXXXXX                       XXXXXXXXXXXXXXXXXXXXXXXXXXXXXXXXXXX",
"XXXXXXXXXXXXXXXXXXXXXXXXXXXXXXXXXXXXXXXXXXXXXXXXXXXXXXXXXXXXXXXXXXXXXX                       XXXXXXXXXXXXXXXXXXXXXXXXXXXXXXXXXXX",
"XXXXXXXXXXXXXXXXXXXXXXXXXXXXXXXXXXXXXXXXXXXXXXXXXXXXXXXXXXXXXXXXXXXXXX                       XXXXXXXXXXXXXXXXXXXXXXXXXXXXXXXXXXX",
"XXXXXXXXXXXXXXXXXXXXXXXXXXXXXXXXXXXXXXXXXXXXXXXXXXXXXXXXXXXXXXXXXXXXXX                       XXXXXXXXXXXXXXXXXXXXXXXXXXXXXXXXXXX",
"XXXXXXXXXXXXXXXXXXXXXXXXXXXXXXXXXXXXXXXXXXXXXXXXXXXXXXXXXXXXXXXXXXXXXX                       XXXXXXXXXXXXXXXXXXXXXXXXXXXXXXXXXXX",
"XXXXXXXXXXXXXXXXXXXXXXXXXXXXXXXXXXXXXXXXXXXXXXXXXXXXXXXXXXXXXXXXXXXXXX                       XXXXXXXXXXXXXXXXXXXXXXXXXXXXXXXXXXX",
"XXXXXXXXXXXXXXXXXXXXXXXXXXXXXXXXXXXXXXXXXXXXXXXXXXXXXXXXXXXXXXXXXXXXXX                       XXXXXXXXXXXXXXXXXXXXXXXXXXXXXXXXXXX",
"XXXXXXXXXXXXXXXXXXXXXXXXXXXXXXXXXXXXXXXXXXXXXXXXXXXXXXXXXXXXXXXXXXXXXX                       XXXXXXXXXXXXXXXXXXXXXXXXXXXXXXXXXXX",
"XXXXXXXXXXXXXXXXXXXXXXXXXXXXXXXXXXXXXXXXXXXXXXXXXXXXXXXXXXXXXXXXXXXXXX                       XXXXXXXXXXXXXXXXXXXXXXXXXXXXXXXXXXX",
"                        XXXXXXXXXXXXXXXXXXXXXXXXXXXXXXXXXXXXXXXXXXXXXX                       XXXXXXXXXXXXXXXXXXXXXXXXXXXXXXXXXXX",
"                        XXXXXXXXXXXXXXXXXXXXXXXXXXXXXXXXXXXXXXXXXXXXXX                       XXXXXXXXXXXXXXXXXXXXXXXXXXXXXXXXXXX",
"                        XXXXXXXXXXXXXXXXXXXXXXXXXXXXXXXXXXXXX.........                       ................XXXXXXXXXXXXXXXXXXX",
"                        XXXXXXXXXXXXXXXXXXXXXXXXXXXXXXXXXXXXX.........                       ................XXXXXXXXXXXXXXXXXXX",
"                        XXXXXXXXXXXXXXXXXXXXXXXXXXXXXXXXXXXXX.........                       ................XXXXXXXXXXXXXXXXXXX",
"                        XXXXXXXXXXXXXXXXXXXXXXXXXXXXXXXXXXXXX.........                       ................XXXXXXXXXXXXXXXXXXX",
"                        XXXXXXXXXXXXXXXXXXXXXXXXXXXXXXXXXXXXX.........                       ................XXXXXXXXXXXXXXXXXXX",
"                        XXXXXXXXXXXXXXXXXXXXXXXXXXXXXXXXXXXXX.........                       ................XXXXXXXXXXXXXXXXXXX",
"                        XXXXXXXXXXXXXXXXXXXXXXXXXXXXXXXXXXXXX.........                       ................XXXXXXXXXXXXXXXXXXX",
"                        XXXXXXXXXXXXXXXXXXXXXXXXXXXXXXXXXXXXX................................................XXXXXXXXXXXXXXXXXXX",
"                        XXXXXXXXXXXXXXXXXXXXXXXXXXXXXXXXXXXXX................................................XXXXXXXXXXXXXXXXXXX",
"                        XXXXXXXXXXXXXXXXXXXXXXXXXXXXXXXXXXXXX................................................XXXXXXXXXXXXXXXXXXX",
"                        XXXXXXXXXXXXXXXXXXXXXXXXXXXXXXXXXXXXX................................................XXXXXXXXXXXXXXXXXXX",
"                        XXXXXXXXXXXXXXXXXXXXXXXXXXXXXXXXXXXXX................................................XXXXXXXXXXXXXXXXXXX",
"                        XXXXXXXXXXXXXXXXXXXXXXXXXXXXXXXXXXXXX................................................XXXXXXXXXXXXXXXXXXX",
"                        XXXXXXXXXXXXXXXXXXXXXXXXXXXXXXXXXXXXX................................................XXXXXXXXXXXXXXXXXXX",
"                        XXXXXXXXXXXXXXXXXXXXXXXXXXXXXXXXXXXXX................................................XXXXXXXXXXXXXXXXXXX",
"                        XXXXXXXXXXXXXXXXXXXXXXXXXXXXXXXXXXXXX................................................XXXXXXXXXXXXXXXXXXX",
"                        XXXXXXXXXXXXXXXXXXXXXXXXXXXXXXXXXXXXX................................................XXXXXXXXXXXXXXXXXXX",
"                        XXXXXXXXXXXXXXXXXXXXXXXXXXXXXXXXXXXXXXXXXXXXXXXXXXXXXXXXXXXXXXXXXXXXXXXXXXXXXXXXXXXXXXXXXXXXXXXXXXXXXXXX",
"                        XXXXXXXXXXXXXXXXXXXXXXXXXXXXXXXXXXXXXXXXXXXXXXXXXXXXXXXXXXXXXXXXXXXXXXXXXXXXXXXXXXXXXXXXXXXXXXXXXXXXXXXX",
"                        XXXXXXXXXXXXXXXXXXXXXXXXXXXXXXXXXXXXXXXXXXXXXXXXXXXXXXXXXXXXXXXXXXXXXXXXXXXXXXXXXXXXXXXXXXXXXXXXXXXXXXXX",
"                        XXXXXXXXXXXXXXXXXXXXXXXXXXXXXXXXXXXXXXXXXXXXXXXXXXXXXXXXXXXXXXXXXXXXXXXXXXXXXXXXXXXXXXXXXXXXXXXXXXXXXXXX",
"                        XXXXXXXXXXXXXXXXXXXXXXXXXXXXXXXXXXXXXXXXXXXXXXXXXXXXXXXXXXXXXXXXXXXXXXXXXXXXXXXXXXXXXXXXXXXXXXXXXXXXXXXX",
"                        XXXXXXXXXXXXXXXXXXXXXXXXXXXXXXXXXXXXXXXXXXXXXXXXXXXXXXXXXXXXXXXXXXXXXXXXXXXXXXXXXXXXXXXXXXXXXXXXXXXXXXXX",
"XXXXXXXXXXXXXXXXXXXXXXXXXXXXXXXXXXXXXXXXXXXXXXXXXXXXXXXXXXXXXXXXXXXXXXXXXXXXXXXXXXXXXXXXXXXXXXXXXXXXXXXXXXXXXXXXXXXXXXXXXXXXXXXX",
"XXXXXXXXXXXXXXXXXXXXXXXXXXXXXXXXXXXXXXXXXXXXXXXXXXXXXXXXXXXXXXXXXXXXXXXXXXXXXXXXXXXXXXXXXXXXXXXXXXXXXXXXXXXXXXXXXXXXXXXXXXXXXXXX",
"XXXXXXXXXXXXXXXXXXXXXXXXXXXXXXXXXXXXXXXXXXXXXXXXXXXXXXXXXXXXXXXXXXXXXXXXXXXXXXXXXXXXXXXXXXXXXXXXXXXXXXXXXXXXXXXXXXXXXXXXXXXXXXXX",
"XXXXXXXXXXXXXXXXXXXXXXXXXXXXXXXXXXXXXXXXXXXXXXXXXXXXXXXXXXXXXXXXXXXXXXXXXXXXXXXXXXXXXXXXXXXXXXXXXXXXXXXXXXXXXXXXXXXXXXXXXXXXXXXX"
};
